# xmcd
#
# Track frame offsets:
#	150
#	10409
#	12420
#	14781
#	27859
#	39474
#	49498
#	61077
#	71857
#	82257
#	92485
#	93326
#	106275
#	118458
#	130680
#	141785
#	149906
#	162618
#	173106
#	184517
#	195074
#	210154
#	225487
#	239784
#
# Disc length: 3360 seconds
#
# Revision: 1
# Processed by: cddbd v1.5.2PL0 Copyright (c) Steve Scherf et al.
# Submitted via: audiograbber 1.83.01
#
DISCID=580d1e18
DTITLE=Various Artist - Cajun Classics: Kings Of Cajun At Their Very Best
DYEAR=1993
DGENRE=Cajun
TTITLE0=Badeaux and The Louisiana Aces Featuring DL Menard - The Back Door
TTITLE1=Nathan Abshire - Pine Grove Blues
TTITLE2=Lesa Cormier and The Sundown Playboys - Saturday Night Special
TTITLE3=Vin Bruce - Jolie Blon
TTITLE4=Cleveland Crochet - Sugar Bee
TTITLE5=Aldus Roger - Lafayette Two Step
TTITLE6=Doc Guidry - Cher Cherie
TTITLE7=Austin Pitre - Flumes D'enfer
TTITLE8=Joe Bonsall And The Orange Playboys - Step It Fast
TTITLE9=Joe Bonsall And The Orange Playboys - Parlez Vous L'francais
TTITLE10=Robert Bertrand - I'll Take You Home
TTITLE11=Dewey Balfa - Equand J'etais Petit
TTITLE12=Leroy Broussard - Lemonade Song
TTITLE13=Iry LeJeune - Grande Bosco
TTITLE14=Lawrence Walker - Mamou Two Step
TTITLE15=Jimmy C Newmann - Hippy Tai Yo
TTITLE16=Sidney Brown - Sha Ba-Ba
TTITLE17=Belton Richard - Cajun Stripper
TTITLE18=Shirley Bergeron - J'ai Fait Mon E'de
TTITLE19=David Greely - Choupique Two Step
TTITLE20=Jambalaya Cajun Band with Reggie Matte - La Pointe Aux Pins
TTITLE21=Jimmy Breaux - Creole Stomp
TTITLE22=Beausoleil - J'ai Vu Le Loup
TTITLE23=Nolan Cormier and The L.A. Aces - Hee Haw Breakdown
EXTD=
EXTT0=
EXTT1=
EXTT2=
EXTT3=
EXTT4=
EXTT5=
EXTT6=
EXTT7=
EXTT8=
EXTT9=
EXTT10=
EXTT11=
EXTT12=
EXTT13=
EXTT14=
EXTT15=
EXTT16=
EXTT17=
EXTT18=
EXTT19=
EXTT20=
EXTT21=
EXTT22=
EXTT23=
PLAYORDER=
